<svg xmlns="http://www.w3.org/2000/svg" xmlns:xlink="http://www.w3.org/1999/xlink" width="756" zoomAndPan="magnify" viewBox="0 0 567 254.999984" height="340" preserveAspectRatio="xMidYMid meet" version="1.0"><defs><g/><clipPath id="acffb128a7"><path d="M 159 0.199219 L 276 0.199219 L 276 83 L 159 83 Z M 159 0.199219 " clip-rule="nonzero"/></clipPath><clipPath id="25244b2a53"><rect x="0" width="117" y="0" height="83"/></clipPath><clipPath id="7c58321c11"><rect x="0" width="263" y="0" height="22"/></clipPath><clipPath id="8fad09d4db"><path d="M 0.71875 112 L 434.398438 112 L 434.398438 143.238281 L 0.71875 143.238281 Z M 0.71875 112 " clip-rule="nonzero"/></clipPath><clipPath id="50c56f4f1f"><rect x="0" width="435" y="0" height="32"/></clipPath><clipPath id="44429d1167"><rect x="0" width="435" y="0" height="144"/></clipPath></defs><rect x="-56.7" width="680.4" fill="#ffffff" y="-25.499998" height="305.999981" fill-opacity="1"/><rect x="-56.7" width="680.4" fill="#000000" y="-25.499998" height="305.999981" fill-opacity="1"/><g transform="matrix(1, 0, 0, 1, 66, 61)"><g clip-path="url(#44429d1167)"><g clip-path="url(#acffb128a7)"><g transform="matrix(1, 0, 0, 1, 159, -0.000000000000007105)"><g clip-path="url(#25244b2a53)"><g fill="#ffffff" fill-opacity="1"><g transform="translate(0.612935, 61.472429)"><g><path d="M 8.96875 -56.984375 L 14.59375 -56.984375 L 14.59375 0 L 8.96875 0 Z M 8.96875 -56.984375 "/></g></g></g><g fill="#ffffff" fill-opacity="1"><g transform="translate(28.661797, 61.472429)"><g><path d="M 8.96875 -23.96875 L 60.578125 -23.96875 C 62.421875 -23.96875 64.15625 -24.332031 65.78125 -25.0625 C 67.414062 -25.800781 68.84375 -26.78125 70.0625 -28 C 71.289062 -29.226562 72.257812 -30.679688 72.96875 -32.359375 C 73.675781 -34.046875 74.03125 -35.816406 74.03125 -37.671875 C 74.03125 -39.566406 73.675781 -41.328125 72.96875 -42.953125 C 72.257812 -44.585938 71.289062 -46.03125 70.0625 -47.28125 C 68.84375 -48.53125 67.414062 -49.507812 65.78125 -50.21875 C 64.15625 -50.925781 62.421875 -51.28125 60.578125 -51.28125 L 8.96875 -51.28125 L 8.96875 -56.984375 L 60.578125 -56.984375 C 63.179688 -56.984375 65.648438 -56.476562 67.984375 -55.46875 C 70.328125 -54.46875 72.351562 -53.082031 74.0625 -51.3125 C 75.78125 -49.550781 77.140625 -47.5 78.140625 -45.15625 C 79.148438 -42.820312 79.65625 -40.328125 79.65625 -37.671875 C 79.65625 -35.003906 79.148438 -32.5 78.140625 -30.15625 C 77.140625 -27.820312 75.78125 -25.769531 74.0625 -24 C 72.351562 -22.238281 70.328125 -20.851562 67.984375 -19.84375 C 65.648438 -18.84375 63.179688 -18.34375 60.578125 -18.34375 L 52.75 -18.34375 L 77.859375 0 L 68.5625 0 L 43.375 -18.34375 L 14.59375 -18.34375 L 14.59375 0 L 8.96875 0 Z M 8.96875 -23.96875 "/></g></g></g></g></g></g><g transform="matrix(1, 0, 0, 1, 94, 79)"><g clip-path="url(#7c58321c11)"><g fill="#f0eeea" fill-opacity="1"><g transform="translate(0.627895, 16.204258)"><g><path d="M 2.34375 0 L 2.34375 -14.390625 L 17.328125 -14.390625 L 17.328125 -13.484375 L 3.390625 -13.484375 L 3.390625 -7.75 L 14.109375 -7.75 L 14.109375 -6.921875 L 3.390625 -6.921875 L 3.390625 -0.90625 L 17.65625 -0.90625 L 17.65625 0 Z M 2.34375 0 "/></g></g></g><g fill="#f0eeea" fill-opacity="1"><g transform="translate(36.373308, 16.204258)"><g><path d="M 9.1875 0 L 9.1875 -5.875 L 0.46875 -14.390625 L 1.8125 -14.390625 L 9.6875 -6.765625 L 9.84375 -6.765625 L 17.765625 -14.390625 L 19.109375 -14.390625 L 10.328125 -5.859375 L 10.328125 0 Z M 9.1875 0 "/></g></g></g><g fill="#f0eeea" fill-opacity="1"><g transform="translate(72.365512, 16.204258)"><g><path d="M 2.34375 0 L 2.34375 -14.390625 L 17.328125 -14.390625 L 17.328125 -13.484375 L 3.390625 -13.484375 L 3.390625 -7.75 L 14.109375 -7.75 L 14.109375 -6.921875 L 3.390625 -6.921875 L 3.390625 -0.90625 L 17.65625 -0.90625 L 17.65625 0 Z M 2.34375 0 "/></g></g></g><g fill="#f0eeea" fill-opacity="1"><g transform="translate(108.110924, 16.204258)"><g><path d="M 7.59375 0.25 L 0.46875 -14.390625 L 1.578125 -14.390625 L 7.796875 -1.578125 L 7.890625 -1.578125 L 14.453125 -14.625 L 14.828125 -14.625 L 21.421875 -1.578125 L 21.546875 -1.578125 L 27.671875 -14.390625 L 28.828125 -14.390625 L 21.734375 0.25 L 21.28125 0.25 L 14.703125 -12.953125 L 14.578125 -12.953125 L 8 0.25 Z M 7.59375 0.25 "/></g></g></g><g fill="#f0eeea" fill-opacity="1"><g transform="translate(153.892469, 16.204258)"><g><path d="M 2.34375 0 L 2.34375 -14.390625 L 17.328125 -14.390625 L 17.328125 -13.484375 L 3.390625 -13.484375 L 3.390625 -7.75 L 14.109375 -7.75 L 14.109375 -6.921875 L 3.390625 -6.921875 L 3.390625 -0.90625 L 17.65625 -0.90625 L 17.65625 0 Z M 2.34375 0 "/></g></g></g><g fill="#f0eeea" fill-opacity="1"><g transform="translate(189.637882, 16.204258)"><g><path d="M 0.46875 0 L 10.234375 -14.625 L 10.46875 -14.625 L 20.25 0 L 19.015625 0 L 17.09375 -2.96875 L 3.515625 -2.96875 L 1.578125 0 Z M 4.078125 -3.765625 L 16.546875 -3.765625 L 10.40625 -13.09375 L 10.265625 -13.09375 Z M 4.078125 -3.765625 "/></g></g></g><g fill="#f0eeea" fill-opacity="1"><g transform="translate(226.802332, 16.204258)"><g><path d="M 2.34375 0 L 2.34375 -14.390625 L 11.5 -14.390625 C 12.820312 -14.390625 13.957031 -14.222656 14.90625 -13.890625 C 15.863281 -13.554688 16.601562 -13.085938 17.125 -12.484375 C 17.644531 -11.878906 17.90625 -11.164062 17.90625 -10.34375 C 17.90625 -9.632812 17.695312 -8.976562 17.28125 -8.375 C 16.863281 -7.769531 16.269531 -7.273438 15.5 -6.890625 C 14.738281 -6.515625 13.816406 -6.296875 12.734375 -6.234375 L 18.078125 0 L 16.8125 0 L 11.5625 -6.171875 L 3.390625 -6.140625 L 3.390625 0 Z M 3.390625 -6.953125 L 11.40625 -6.953125 C 12.476562 -6.953125 13.414062 -7.09375 14.21875 -7.375 C 15.03125 -7.664062 15.664062 -8.0625 16.125 -8.5625 C 16.582031 -9.0625 16.8125 -9.628906 16.8125 -10.265625 C 16.8125 -11.242188 16.332031 -12.023438 15.375 -12.609375 C 14.414062 -13.191406 13.125 -13.484375 11.5 -13.484375 L 3.390625 -13.484375 Z M 3.390625 -6.953125 "/></g></g></g></g></g><g clip-path="url(#8fad09d4db)"><g transform="matrix(1, 0, 0, 1, -0.000000000000014211, 112)"><g clip-path="url(#50c56f4f1f)"><g fill="#ffffff" fill-opacity="1"><g transform="translate(1.227019, 25.000336)"><g><path d="M 2.015625 -16.1875 L 14.1875 -16.1875 C 15.1875 -16.1875 16.03125 -16.140625 16.71875 -16.046875 C 17.414062 -15.960938 17.988281 -15.832031 18.4375 -15.65625 C 18.882812 -15.476562 19.226562 -15.257812 19.46875 -15 C 19.71875 -14.738281 19.894531 -14.429688 20 -14.078125 C 20.113281 -13.734375 20.179688 -13.34375 20.203125 -12.90625 C 20.222656 -12.46875 20.234375 -11.988281 20.234375 -11.46875 C 20.234375 -10.914062 20.21875 -10.40625 20.1875 -9.9375 C 20.164062 -9.476562 20.085938 -9.0625 19.953125 -8.6875 C 19.816406 -8.3125 19.597656 -7.976562 19.296875 -7.6875 C 18.992188 -7.40625 18.566406 -7.171875 18.015625 -6.984375 C 17.460938 -6.796875 16.765625 -6.648438 15.921875 -6.546875 C 15.078125 -6.453125 14.035156 -6.40625 12.796875 -6.40625 L 4.046875 -6.40625 L 4.046875 0 L 2.015625 0 Z M 4.046875 -8.09375 L 12.796875 -8.09375 C 13.703125 -8.09375 14.460938 -8.109375 15.078125 -8.140625 C 15.691406 -8.171875 16.195312 -8.226562 16.59375 -8.3125 C 16.988281 -8.394531 17.296875 -8.515625 17.515625 -8.671875 C 17.734375 -8.828125 17.894531 -9.03125 18 -9.28125 C 18.101562 -9.53125 18.160156 -9.832031 18.171875 -10.1875 C 18.191406 -10.539062 18.203125 -10.96875 18.203125 -11.46875 C 18.203125 -11.914062 18.191406 -12.304688 18.171875 -12.640625 C 18.160156 -12.972656 18.101562 -13.25 18 -13.46875 C 17.894531 -13.695312 17.734375 -13.878906 17.515625 -14.015625 C 17.296875 -14.148438 16.988281 -14.253906 16.59375 -14.328125 C 16.195312 -14.398438 15.691406 -14.445312 15.078125 -14.46875 C 14.460938 -14.488281 13.703125 -14.5 12.796875 -14.5 L 4.046875 -14.5 Z M 4.046875 -8.09375 "/></g></g></g><g fill="#ffffff" fill-opacity="1"><g transform="translate(22.127041, 25.000336)"><g><path d="M 20.5625 0 L 18.546875 0 L 18.546875 -3.03125 C 18.546875 -3.519531 18.535156 -3.941406 18.515625 -4.296875 C 18.492188 -4.660156 18.429688 -4.96875 18.328125 -5.21875 C 18.234375 -5.46875 18.078125 -5.671875 17.859375 -5.828125 C 17.640625 -5.984375 17.328125 -6.101562 16.921875 -6.1875 C 16.523438 -6.269531 16.019531 -6.328125 15.40625 -6.359375 C 14.789062 -6.390625 14.035156 -6.40625 13.140625 -6.40625 L 4.046875 -6.40625 L 4.046875 0 L 2.015625 0 L 2.015625 -16.1875 L 13.46875 -16.1875 C 14.707031 -16.1875 15.75 -16.140625 16.59375 -16.046875 C 17.445312 -15.960938 18.148438 -15.832031 18.703125 -15.65625 C 19.253906 -15.476562 19.675781 -15.257812 19.96875 -15 C 20.269531 -14.738281 20.488281 -14.429688 20.625 -14.078125 C 20.757812 -13.734375 20.835938 -13.34375 20.859375 -12.90625 C 20.890625 -12.46875 20.90625 -11.988281 20.90625 -11.46875 C 20.90625 -10.789062 20.859375 -10.195312 20.765625 -9.6875 C 20.671875 -9.175781 20.507812 -8.738281 20.28125 -8.375 C 20.050781 -8.019531 19.75 -7.734375 19.375 -7.515625 C 19.007812 -7.304688 18.546875 -7.160156 17.984375 -7.078125 C 18.546875 -6.992188 18.992188 -6.847656 19.328125 -6.640625 C 19.671875 -6.429688 19.929688 -6.15625 20.109375 -5.8125 C 20.296875 -5.476562 20.414062 -5.078125 20.46875 -4.609375 C 20.53125 -4.148438 20.5625 -3.625 20.5625 -3.03125 Z M 4.046875 -8.09375 L 13.46875 -8.09375 C 14.375 -8.09375 15.132812 -8.109375 15.75 -8.140625 C 16.363281 -8.171875 16.867188 -8.226562 17.265625 -8.3125 C 17.671875 -8.394531 17.976562 -8.515625 18.1875 -8.671875 C 18.40625 -8.828125 18.566406 -9.03125 18.671875 -9.28125 C 18.773438 -9.53125 18.832031 -9.832031 18.84375 -10.1875 C 18.863281 -10.539062 18.875 -10.96875 18.875 -11.46875 C 18.875 -11.914062 18.863281 -12.304688 18.84375 -12.640625 C 18.832031 -12.972656 18.773438 -13.25 18.671875 -13.46875 C 18.566406 -13.695312 18.40625 -13.878906 18.1875 -14.015625 C 17.976562 -14.148438 17.671875 -14.253906 17.265625 -14.328125 C 16.867188 -14.398438 16.363281 -14.445312 15.75 -14.46875 C 15.132812 -14.488281 14.375 -14.5 13.46875 -14.5 L 4.046875 -14.5 Z M 4.046875 -8.09375 "/></g></g></g><g fill="#ffffff" fill-opacity="1"><g transform="translate(44.375452, 25.000336)"><g><path d="M 14.84375 -16.515625 C 16.082031 -16.515625 17.125 -16.4375 17.96875 -16.28125 C 18.8125 -16.132812 19.503906 -15.910156 20.046875 -15.609375 C 20.597656 -15.304688 21.019531 -14.921875 21.3125 -14.453125 C 21.613281 -13.992188 21.832031 -13.453125 21.96875 -12.828125 C 22.101562 -12.203125 22.179688 -11.492188 22.203125 -10.703125 C 22.234375 -9.921875 22.25 -9.050781 22.25 -8.09375 C 22.25 -7.132812 22.234375 -6.257812 22.203125 -5.46875 C 22.179688 -4.6875 22.101562 -3.984375 21.96875 -3.359375 C 21.832031 -2.734375 21.613281 -2.1875 21.3125 -1.71875 C 21.019531 -1.257812 20.597656 -0.875 20.046875 -0.5625 C 19.503906 -0.257812 18.8125 -0.0351562 17.96875 0.109375 C 17.125 0.265625 16.082031 0.34375 14.84375 0.34375 L 8.75 0.34375 C 7.519531 0.34375 6.476562 0.265625 5.625 0.109375 C 4.78125 -0.0351562 4.082031 -0.257812 3.53125 -0.5625 C 2.988281 -0.875 2.566406 -1.257812 2.265625 -1.71875 C 1.972656 -2.1875 1.753906 -2.734375 1.609375 -3.359375 C 1.472656 -3.984375 1.394531 -4.6875 1.375 -5.46875 C 1.351562 -6.257812 1.34375 -7.132812 1.34375 -8.09375 C 1.34375 -9.050781 1.351562 -9.921875 1.375 -10.703125 C 1.394531 -11.492188 1.472656 -12.203125 1.609375 -12.828125 C 1.753906 -13.453125 1.972656 -13.992188 2.265625 -14.453125 C 2.566406 -14.921875 2.988281 -15.304688 3.53125 -15.609375 C 4.082031 -15.910156 4.78125 -16.132812 5.625 -16.28125 C 6.476562 -16.4375 7.519531 -16.515625 8.75 -16.515625 Z M 14.84375 -1.34375 C 15.738281 -1.34375 16.492188 -1.367188 17.109375 -1.421875 C 17.722656 -1.472656 18.226562 -1.578125 18.625 -1.734375 C 19.03125 -1.898438 19.335938 -2.132812 19.546875 -2.4375 C 19.765625 -2.738281 19.921875 -3.140625 20.015625 -3.640625 C 20.117188 -4.140625 20.179688 -4.753906 20.203125 -5.484375 C 20.222656 -6.210938 20.234375 -7.082031 20.234375 -8.09375 C 20.234375 -9.101562 20.222656 -9.972656 20.203125 -10.703125 C 20.179688 -11.429688 20.117188 -12.039062 20.015625 -12.53125 C 19.921875 -13.03125 19.765625 -13.429688 19.546875 -13.734375 C 19.335938 -14.035156 19.03125 -14.265625 18.625 -14.421875 C 18.226562 -14.585938 17.722656 -14.695312 17.109375 -14.75 C 16.492188 -14.800781 15.738281 -14.828125 14.84375 -14.828125 L 8.75 -14.828125 C 7.851562 -14.828125 7.097656 -14.800781 6.484375 -14.75 C 5.867188 -14.695312 5.359375 -14.585938 4.953125 -14.421875 C 4.554688 -14.265625 4.25 -14.035156 4.03125 -13.734375 C 3.8125 -13.429688 3.648438 -13.03125 3.546875 -12.53125 C 3.453125 -12.039062 3.398438 -11.429688 3.390625 -10.703125 C 3.378906 -9.972656 3.375 -9.101562 3.375 -8.09375 C 3.375 -7.082031 3.378906 -6.210938 3.390625 -5.484375 C 3.410156 -4.753906 3.46875 -4.140625 3.5625 -3.640625 C 3.664062 -3.140625 3.820312 -2.738281 4.03125 -2.4375 C 4.25 -2.132812 4.554688 -1.898438 4.953125 -1.734375 C 5.359375 -1.578125 5.867188 -1.472656 6.484375 -1.421875 C 7.097656 -1.367188 7.851562 -1.34375 8.75 -1.34375 Z M 14.84375 -1.34375 "/></g></g></g><g fill="#ffffff" fill-opacity="1"><g transform="translate(67.972251, 25.000336)"><g><path d="M 19.5625 -16.1875 L 19.5625 -14.5 L 11.46875 -14.5 L 11.46875 0 L 9.4375 0 L 9.4375 -14.5 L 1.34375 -14.5 L 1.34375 -16.1875 Z M 19.5625 -16.1875 "/></g></g></g><g fill="#ffffff" fill-opacity="1"><g transform="translate(88.872273, 25.000336)"><g><path d="M 2.015625 0 L 2.015625 -16.1875 L 18.203125 -16.1875 L 18.203125 -14.5 L 4.046875 -14.5 L 4.046875 -9.109375 L 17.53125 -9.109375 L 17.53125 -7.421875 L 4.046875 -7.421875 L 4.046875 -1.6875 L 18.203125 -1.6875 L 18.203125 0 Z M 2.015625 0 "/></g></g></g><g fill="#ffffff" fill-opacity="1"><g transform="translate(107.749713, 25.000336)"><g><path d="M 19.5625 -11.125 C 19.5625 -11.96875 19.46875 -12.632812 19.28125 -13.125 C 19.101562 -13.613281 18.800781 -13.984375 18.375 -14.234375 C 17.957031 -14.492188 17.40625 -14.65625 16.71875 -14.71875 C 16.03125 -14.789062 15.179688 -14.828125 14.171875 -14.828125 L 8.75 -14.828125 C 7.851562 -14.828125 7.097656 -14.800781 6.484375 -14.75 C 5.867188 -14.695312 5.359375 -14.585938 4.953125 -14.421875 C 4.554688 -14.265625 4.25 -14.035156 4.03125 -13.734375 C 3.8125 -13.429688 3.648438 -13.03125 3.546875 -12.53125 C 3.453125 -12.039062 3.398438 -11.429688 3.390625 -10.703125 C 3.378906 -9.972656 3.375 -9.101562 3.375 -8.09375 C 3.375 -7.082031 3.378906 -6.210938 3.390625 -5.484375 C 3.410156 -4.753906 3.46875 -4.140625 3.5625 -3.640625 C 3.664062 -3.140625 3.820312 -2.738281 4.03125 -2.4375 C 4.25 -2.132812 4.554688 -1.898438 4.953125 -1.734375 C 5.359375 -1.578125 5.867188 -1.472656 6.484375 -1.421875 C 7.097656 -1.367188 7.851562 -1.34375 8.75 -1.34375 L 14.1875 -1.34375 C 14.96875 -1.34375 15.640625 -1.363281 16.203125 -1.40625 C 16.773438 -1.445312 17.257812 -1.523438 17.65625 -1.640625 C 18.0625 -1.753906 18.382812 -1.910156 18.625 -2.109375 C 18.875 -2.304688 19.066406 -2.550781 19.203125 -2.84375 C 19.347656 -3.144531 19.441406 -3.503906 19.484375 -3.921875 C 19.535156 -4.335938 19.5625 -4.828125 19.5625 -5.390625 L 19.5625 -6.40625 L 11.453125 -6.40625 L 11.453125 -8.09375 L 21.59375 -8.09375 L 21.59375 -5.390625 C 21.59375 -4.722656 21.546875 -4.113281 21.453125 -3.5625 C 21.367188 -3.019531 21.21875 -2.535156 21 -2.109375 C 20.789062 -1.679688 20.507812 -1.3125 20.15625 -1 C 19.800781 -0.695312 19.347656 -0.445312 18.796875 -0.25 C 18.242188 -0.0507812 17.585938 0.09375 16.828125 0.1875 C 16.078125 0.289062 15.195312 0.34375 14.1875 0.34375 L 8.75 0.34375 C 7.519531 0.34375 6.476562 0.265625 5.625 0.109375 C 4.78125 -0.0351562 4.082031 -0.257812 3.53125 -0.5625 C 2.988281 -0.875 2.566406 -1.257812 2.265625 -1.71875 C 1.972656 -2.1875 1.753906 -2.734375 1.609375 -3.359375 C 1.472656 -3.984375 1.394531 -4.6875 1.375 -5.46875 C 1.351562 -6.257812 1.34375 -7.132812 1.34375 -8.09375 C 1.34375 -9.050781 1.351562 -9.921875 1.375 -10.703125 C 1.394531 -11.492188 1.472656 -12.203125 1.609375 -12.828125 C 1.753906 -13.453125 1.972656 -13.992188 2.265625 -14.453125 C 2.566406 -14.921875 2.988281 -15.304688 3.53125 -15.609375 C 4.082031 -15.910156 4.78125 -16.132812 5.625 -16.28125 C 6.476562 -16.4375 7.519531 -16.515625 8.75 -16.515625 L 14.171875 -16.515625 C 15.179688 -16.515625 16.066406 -16.46875 16.828125 -16.375 C 17.585938 -16.28125 18.238281 -16.132812 18.78125 -15.9375 C 19.332031 -15.75 19.785156 -15.503906 20.140625 -15.203125 C 20.503906 -14.910156 20.789062 -14.566406 21 -14.171875 C 21.21875 -13.773438 21.367188 -13.320312 21.453125 -12.8125 C 21.546875 -12.300781 21.59375 -11.738281 21.59375 -11.125 Z M 19.5625 -11.125 "/></g></g></g><g fill="#ffffff" fill-opacity="1"><g transform="translate(130.682858, 25.000336)"><g><path d="M 19.5625 -11.125 C 19.5625 -11.96875 19.46875 -12.632812 19.28125 -13.125 C 19.101562 -13.613281 18.800781 -13.984375 18.375 -14.234375 C 17.957031 -14.492188 17.40625 -14.65625 16.71875 -14.71875 C 16.03125 -14.789062 15.179688 -14.828125 14.171875 -14.828125 L 8.75 -14.828125 C 7.851562 -14.828125 7.097656 -14.800781 6.484375 -14.75 C 5.867188 -14.695312 5.359375 -14.585938 4.953125 -14.421875 C 4.554688 -14.265625 4.25 -14.035156 4.03125 -13.734375 C 3.8125 -13.429688 3.648438 -13.03125 3.546875 -12.53125 C 3.453125 -12.039062 3.398438 -11.429688 3.390625 -10.703125 C 3.378906 -9.972656 3.375 -9.101562 3.375 -8.09375 C 3.375 -7.082031 3.378906 -6.210938 3.390625 -5.484375 C 3.410156 -4.753906 3.46875 -4.140625 3.5625 -3.640625 C 3.664062 -3.140625 3.820312 -2.738281 4.03125 -2.4375 C 4.25 -2.132812 4.554688 -1.898438 4.953125 -1.734375 C 5.359375 -1.578125 5.867188 -1.472656 6.484375 -1.421875 C 7.097656 -1.367188 7.851562 -1.34375 8.75 -1.34375 L 14.1875 -1.34375 C 14.96875 -1.34375 15.640625 -1.363281 16.203125 -1.40625 C 16.773438 -1.445312 17.257812 -1.523438 17.65625 -1.640625 C 18.0625 -1.753906 18.382812 -1.910156 18.625 -2.109375 C 18.875 -2.304688 19.066406 -2.550781 19.203125 -2.84375 C 19.347656 -3.144531 19.441406 -3.503906 19.484375 -3.921875 C 19.535156 -4.335938 19.5625 -4.828125 19.5625 -5.390625 L 19.5625 -6.40625 L 11.453125 -6.40625 L 11.453125 -8.09375 L 21.59375 -8.09375 L 21.59375 -5.390625 C 21.59375 -4.722656 21.546875 -4.113281 21.453125 -3.5625 C 21.367188 -3.019531 21.21875 -2.535156 21 -2.109375 C 20.789062 -1.679688 20.507812 -1.3125 20.15625 -1 C 19.800781 -0.695312 19.347656 -0.445312 18.796875 -0.25 C 18.242188 -0.0507812 17.585938 0.09375 16.828125 0.1875 C 16.078125 0.289062 15.195312 0.34375 14.1875 0.34375 L 8.75 0.34375 C 7.519531 0.34375 6.476562 0.265625 5.625 0.109375 C 4.78125 -0.0351562 4.082031 -0.257812 3.53125 -0.5625 C 2.988281 -0.875 2.566406 -1.257812 2.265625 -1.71875 C 1.972656 -2.1875 1.753906 -2.734375 1.609375 -3.359375 C 1.472656 -3.984375 1.394531 -4.6875 1.375 -5.46875 C 1.351562 -6.257812 1.34375 -7.132812 1.34375 -8.09375 C 1.34375 -9.050781 1.351562 -9.921875 1.375 -10.703125 C 1.394531 -11.492188 1.472656 -12.203125 1.609375 -12.828125 C 1.753906 -13.453125 1.972656 -13.992188 2.265625 -14.453125 C 2.566406 -14.921875 2.988281 -15.304688 3.53125 -15.609375 C 4.082031 -15.910156 4.78125 -16.132812 5.625 -16.28125 C 6.476562 -16.4375 7.519531 -16.515625 8.75 -16.515625 L 14.171875 -16.515625 C 15.179688 -16.515625 16.066406 -16.46875 16.828125 -16.375 C 17.585938 -16.28125 18.238281 -16.132812 18.78125 -15.9375 C 19.332031 -15.75 19.785156 -15.503906 20.140625 -15.203125 C 20.503906 -14.910156 20.789062 -14.566406 21 -14.171875 C 21.21875 -13.773438 21.367188 -13.320312 21.453125 -12.8125 C 21.546875 -12.300781 21.59375 -11.738281 21.59375 -11.125 Z M 19.5625 -11.125 "/></g></g></g><g fill="#ffffff" fill-opacity="1"><g transform="translate(153.616003, 25.000336)"><g><path d="M 2.015625 -16.1875 L 4.046875 -16.1875 L 4.046875 0 L 2.015625 0 Z M 2.015625 -16.1875 "/></g></g></g><g fill="#ffffff" fill-opacity="1"><g transform="translate(169.133255, 25.000336)"><g><path d="M 2.015625 0 L 2.015625 -16.1875 L 4.046875 -16.1875 L 4.046875 -1.6875 L 16.859375 -1.6875 L 16.859375 0 Z M 2.015625 0 "/></g></g></g><g fill="#ffffff" fill-opacity="1"><g transform="translate(186.662306, 25.000336)"><g><path d="M 17.875 -3.703125 L 5.0625 -3.703125 L 3.03125 0 L 0.671875 0 L 10.109375 -16.1875 L 12.8125 -16.1875 L 22.25 0 L 19.890625 0 Z M 16.859375 -5.390625 L 11.46875 -14.828125 L 6.0625 -5.390625 Z M 16.859375 -5.390625 "/></g></g></g><g fill="#ffffff" fill-opacity="1"><g transform="translate(219.031687, 25.000336)"><g><path d="M 19.5625 -16.1875 L 19.5625 -14.5 L 11.46875 -14.5 L 11.46875 0 L 9.4375 0 L 9.4375 -14.5 L 1.34375 -14.5 L 1.34375 -16.1875 Z M 19.5625 -16.1875 "/></g></g></g><g fill="#ffffff" fill-opacity="1"><g transform="translate(239.931709, 25.000336)"><g><path d="M 20.921875 -16.1875 L 20.921875 -8.09375 C 20.921875 -7.132812 20.90625 -6.257812 20.875 -5.46875 C 20.851562 -4.6875 20.769531 -3.984375 20.625 -3.359375 C 20.488281 -2.734375 20.273438 -2.1875 19.984375 -1.71875 C 19.691406 -1.257812 19.269531 -0.875 18.71875 -0.5625 C 18.175781 -0.257812 17.476562 -0.0351562 16.625 0.109375 C 15.78125 0.265625 14.738281 0.34375 13.5 0.34375 L 8.765625 0.34375 C 7.523438 0.34375 6.484375 0.265625 5.640625 0.109375 C 4.796875 -0.0351562 4.097656 -0.257812 3.546875 -0.5625 C 3.003906 -0.875 2.582031 -1.257812 2.28125 -1.71875 C 1.976562 -2.1875 1.757812 -2.734375 1.625 -3.359375 C 1.488281 -3.984375 1.410156 -4.6875 1.390625 -5.46875 C 1.367188 -6.257812 1.359375 -7.132812 1.359375 -8.09375 L 1.359375 -16.1875 L 3.375 -16.1875 L 3.375 -8.09375 C 3.375 -7.082031 3.382812 -6.210938 3.40625 -5.484375 C 3.425781 -4.753906 3.484375 -4.140625 3.578125 -3.640625 C 3.679688 -3.140625 3.835938 -2.738281 4.046875 -2.4375 C 4.265625 -2.132812 4.570312 -1.898438 4.96875 -1.734375 C 5.375 -1.578125 5.882812 -1.472656 6.5 -1.421875 C 7.113281 -1.367188 7.867188 -1.34375 8.765625 -1.34375 L 13.5 -1.34375 C 14.394531 -1.34375 15.148438 -1.367188 15.765625 -1.421875 C 16.390625 -1.472656 16.898438 -1.578125 17.296875 -1.734375 C 17.691406 -1.898438 18 -2.132812 18.21875 -2.4375 C 18.4375 -2.738281 18.59375 -3.140625 18.6875 -3.640625 C 18.789062 -4.140625 18.847656 -4.753906 18.859375 -5.484375 C 18.878906 -6.210938 18.890625 -7.082031 18.890625 -8.09375 L 18.875 -16.1875 Z M 20.921875 -16.1875 "/></g></g></g><g fill="#ffffff" fill-opacity="1"><g transform="translate(262.19066, 25.000336)"><g><path d="M 17.875 -3.703125 L 5.0625 -3.703125 L 3.03125 0 L 0.671875 0 L 10.109375 -16.1875 L 12.8125 -16.1875 L 22.25 0 L 19.890625 0 Z M 16.859375 -5.390625 L 11.46875 -14.828125 L 6.0625 -5.390625 Z M 16.859375 -5.390625 "/></g></g></g><g fill="#ffffff" fill-opacity="1"><g transform="translate(294.55902, 25.000336)"><g><path d="M 2.015625 -16.1875 L 14.1875 -16.1875 C 15.1875 -16.1875 16.03125 -16.140625 16.71875 -16.046875 C 17.414062 -15.960938 17.988281 -15.832031 18.4375 -15.65625 C 18.882812 -15.476562 19.226562 -15.257812 19.46875 -15 C 19.71875 -14.738281 19.894531 -14.429688 20 -14.078125 C 20.113281 -13.734375 20.179688 -13.34375 20.203125 -12.90625 C 20.222656 -12.46875 20.234375 -11.988281 20.234375 -11.46875 C 20.234375 -10.914062 20.21875 -10.40625 20.1875 -9.9375 C 20.164062 -9.476562 20.085938 -9.0625 19.953125 -8.6875 C 19.816406 -8.3125 19.597656 -7.976562 19.296875 -7.6875 C 18.992188 -7.40625 18.566406 -7.171875 18.015625 -6.984375 C 17.460938 -6.796875 16.765625 -6.648438 15.921875 -6.546875 C 15.078125 -6.453125 14.035156 -6.40625 12.796875 -6.40625 L 4.046875 -6.40625 L 4.046875 0 L 2.015625 0 Z M 4.046875 -8.09375 L 12.796875 -8.09375 C 13.703125 -8.09375 14.460938 -8.109375 15.078125 -8.140625 C 15.691406 -8.171875 16.195312 -8.226562 16.59375 -8.3125 C 16.988281 -8.394531 17.296875 -8.515625 17.515625 -8.671875 C 17.734375 -8.828125 17.894531 -9.03125 18 -9.28125 C 18.101562 -9.53125 18.160156 -9.832031 18.171875 -10.1875 C 18.191406 -10.539062 18.203125 -10.96875 18.203125 -11.46875 C 18.203125 -11.914062 18.191406 -12.304688 18.171875 -12.640625 C 18.160156 -12.972656 18.101562 -13.25 18 -13.46875 C 17.894531 -13.695312 17.734375 -13.878906 17.515625 -14.015625 C 17.296875 -14.148438 16.988281 -14.253906 16.59375 -14.328125 C 16.195312 -14.398438 15.691406 -14.445312 15.078125 -14.46875 C 14.460938 -14.488281 13.703125 -14.5 12.796875 -14.5 L 4.046875 -14.5 Z M 4.046875 -8.09375 "/></g></g></g><g fill="#ffffff" fill-opacity="1"><g transform="translate(315.459042, 25.000336)"><g><path d="M 20.5625 0 L 18.546875 0 L 18.546875 -3.03125 C 18.546875 -3.519531 18.535156 -3.941406 18.515625 -4.296875 C 18.492188 -4.660156 18.429688 -4.96875 18.328125 -5.21875 C 18.234375 -5.46875 18.078125 -5.671875 17.859375 -5.828125 C 17.640625 -5.984375 17.328125 -6.101562 16.921875 -6.1875 C 16.523438 -6.269531 16.019531 -6.328125 15.40625 -6.359375 C 14.789062 -6.390625 14.035156 -6.40625 13.140625 -6.40625 L 4.046875 -6.40625 L 4.046875 0 L 2.015625 0 L 2.015625 -16.1875 L 13.46875 -16.1875 C 14.707031 -16.1875 15.75 -16.140625 16.59375 -16.046875 C 17.445312 -15.960938 18.148438 -15.832031 18.703125 -15.65625 C 19.253906 -15.476562 19.675781 -15.257812 19.96875 -15 C 20.269531 -14.738281 20.488281 -14.429688 20.625 -14.078125 C 20.757812 -13.734375 20.835938 -13.34375 20.859375 -12.90625 C 20.890625 -12.46875 20.90625 -11.988281 20.90625 -11.46875 C 20.90625 -10.789062 20.859375 -10.195312 20.765625 -9.6875 C 20.671875 -9.175781 20.507812 -8.738281 20.28125 -8.375 C 20.050781 -8.019531 19.75 -7.734375 19.375 -7.515625 C 19.007812 -7.304688 18.546875 -7.160156 17.984375 -7.078125 C 18.546875 -6.992188 18.992188 -6.847656 19.328125 -6.640625 C 19.671875 -6.429688 19.929688 -6.15625 20.109375 -5.8125 C 20.296875 -5.476562 20.414062 -5.078125 20.46875 -4.609375 C 20.53125 -4.148438 20.5625 -3.625 20.5625 -3.03125 Z M 4.046875 -8.09375 L 13.46875 -8.09375 C 14.375 -8.09375 15.132812 -8.109375 15.75 -8.140625 C 16.363281 -8.171875 16.867188 -8.226562 17.265625 -8.3125 C 17.671875 -8.394531 17.976562 -8.515625 18.1875 -8.671875 C 18.40625 -8.828125 18.566406 -9.03125 18.671875 -9.28125 C 18.773438 -9.53125 18.832031 -9.832031 18.84375 -10.1875 C 18.863281 -10.539062 18.875 -10.96875 18.875 -11.46875 C 18.875 -11.914062 18.863281 -12.304688 18.84375 -12.640625 C 18.832031 -12.972656 18.773438 -13.25 18.671875 -13.46875 C 18.566406 -13.695312 18.40625 -13.878906 18.1875 -14.015625 C 17.976562 -14.148438 17.671875 -14.253906 17.265625 -14.328125 C 16.867188 -14.398438 16.363281 -14.445312 15.75 -14.46875 C 15.132812 -14.488281 14.375 -14.5 13.46875 -14.5 L 4.046875 -14.5 Z M 4.046875 -8.09375 "/></g></g></g><g fill="#ffffff" fill-opacity="1"><g transform="translate(337.707453, 25.000336)"><g><path d="M 2.015625 -16.1875 L 4.046875 -16.1875 L 4.046875 0 L 2.015625 0 Z M 2.015625 -16.1875 "/></g></g></g><g fill="#ffffff" fill-opacity="1"><g transform="translate(343.775201, 25.000336)"><g><path d="M 18.546875 -16.1875 L 20.90625 -16.1875 L 12.140625 0 L 9.4375 0 L 0.671875 -16.1875 L 3.03125 -16.1875 L 10.796875 -1.34375 Z M 18.546875 -16.1875 "/></g></g></g><g fill="#ffffff" fill-opacity="1"><g transform="translate(365.349417, 25.000336)"><g><path d="M 17.875 -3.703125 L 5.0625 -3.703125 L 3.03125 0 L 0.671875 0 L 10.109375 -16.1875 L 12.8125 -16.1875 L 22.25 0 L 19.890625 0 Z M 16.859375 -5.390625 L 11.46875 -14.828125 L 6.0625 -5.390625 Z M 16.859375 -5.390625 "/></g></g></g><g fill="#ffffff" fill-opacity="1"><g transform="translate(388.272023, 25.000336)"><g><path d="M 18.875 -11.125 C 18.875 -11.96875 18.78125 -12.632812 18.59375 -13.125 C 18.414062 -13.613281 18.113281 -13.984375 17.6875 -14.234375 C 17.269531 -14.492188 16.71875 -14.65625 16.03125 -14.71875 C 15.34375 -14.789062 14.492188 -14.828125 13.484375 -14.828125 L 8.75 -14.828125 C 7.851562 -14.828125 7.097656 -14.800781 6.484375 -14.75 C 5.867188 -14.695312 5.359375 -14.585938 4.953125 -14.421875 C 4.554688 -14.265625 4.25 -14.035156 4.03125 -13.734375 C 3.8125 -13.429688 3.648438 -13.03125 3.546875 -12.53125 C 3.453125 -12.039062 3.398438 -11.429688 3.390625 -10.703125 C 3.378906 -9.972656 3.375 -9.101562 3.375 -8.09375 C 3.375 -7.082031 3.378906 -6.210938 3.390625 -5.484375 C 3.410156 -4.753906 3.46875 -4.140625 3.5625 -3.640625 C 3.664062 -3.140625 3.820312 -2.738281 4.03125 -2.4375 C 4.25 -2.132812 4.554688 -1.898438 4.953125 -1.734375 C 5.359375 -1.578125 5.867188 -1.472656 6.484375 -1.421875 C 7.097656 -1.367188 7.851562 -1.34375 8.75 -1.34375 L 13.484375 -1.34375 C 14.273438 -1.34375 14.953125 -1.363281 15.515625 -1.40625 C 16.085938 -1.445312 16.570312 -1.523438 16.96875 -1.640625 C 17.375 -1.753906 17.695312 -1.910156 17.9375 -2.109375 C 18.1875 -2.304688 18.378906 -2.550781 18.515625 -2.84375 C 18.648438 -3.144531 18.742188 -3.503906 18.796875 -3.921875 C 18.847656 -4.335938 18.875 -4.828125 18.875 -5.390625 L 20.890625 -5.390625 C 20.890625 -4.722656 20.847656 -4.113281 20.765625 -3.5625 C 20.679688 -3.019531 20.53125 -2.535156 20.3125 -2.109375 C 20.101562 -1.679688 19.816406 -1.3125 19.453125 -1 C 19.097656 -0.695312 18.644531 -0.445312 18.09375 -0.25 C 17.550781 -0.0507812 16.898438 0.09375 16.140625 0.1875 C 15.378906 0.289062 14.492188 0.34375 13.484375 0.34375 L 8.75 0.34375 C 7.519531 0.34375 6.476562 0.265625 5.625 0.109375 C 4.78125 -0.0351562 4.082031 -0.257812 3.53125 -0.5625 C 2.988281 -0.875 2.566406 -1.257812 2.265625 -1.71875 C 1.972656 -2.1875 1.753906 -2.734375 1.609375 -3.359375 C 1.472656 -3.984375 1.394531 -4.6875 1.375 -5.46875 C 1.351562 -6.257812 1.34375 -7.132812 1.34375 -8.09375 C 1.34375 -9.050781 1.351562 -9.921875 1.375 -10.703125 C 1.394531 -11.492188 1.472656 -12.203125 1.609375 -12.828125 C 1.753906 -13.453125 1.972656 -13.992188 2.265625 -14.453125 C 2.566406 -14.921875 2.988281 -15.304688 3.53125 -15.609375 C 4.082031 -15.910156 4.78125 -16.132812 5.625 -16.28125 C 6.476562 -16.4375 7.519531 -16.515625 8.75 -16.515625 L 13.484375 -16.515625 C 14.492188 -16.515625 15.378906 -16.46875 16.140625 -16.375 C 16.898438 -16.28125 17.550781 -16.132812 18.09375 -15.9375 C 18.644531 -15.75 19.097656 -15.503906 19.453125 -15.203125 C 19.816406 -14.910156 20.101562 -14.566406 20.3125 -14.171875 C 20.53125 -13.773438 20.679688 -13.320312 20.765625 -12.8125 C 20.847656 -12.300781 20.890625 -11.738281 20.890625 -11.125 Z M 18.875 -11.125 "/></g></g></g><g fill="#ffffff" fill-opacity="1"><g transform="translate(410.509905, 25.000336)"><g><path d="M 1.34375 -16.1875 L 4.046875 -16.1875 L 11.46875 -8.265625 L 18.875 -16.1875 L 21.578125 -16.1875 L 12.46875 -6.75 L 12.46875 0 L 10.453125 0 L 10.453125 -6.75 Z M 1.34375 -16.1875 "/></g></g></g></g></g></g></g></g></svg>
