<?xml version="1.0" encoding="utf-8"?>
<!-- Generator: Adobe Illustrator 15.0.0, SVG Export Plug-In . SVG Version: 6.00 Build 0)  -->
<!DOCTYPE svg PUBLIC "-//W3C//DTD SVG 1.1//EN" "http://www.w3.org/Graphics/SVG/1.1/DTD/svg11.dtd">
<svg version="1.1" id="Livello_1" xmlns="http://www.w3.org/2000/svg" xmlns:xlink="http://www.w3.org/1999/xlink" x="0px" y="0px"
	 width="229.601px" height="54.5px" viewBox="0 0 229.601 54.5" enable-background="new 0 0 229.601 54.5" xml:space="preserve">
<g>
	<g>
		<g>
			<path fill="#FFFFFF" d="M60.25,14.841c-3.435-0.789-4.048-0.997-4.154-2.145c-0.006-0.064-0.011-0.139-0.013-0.212
				c-0.007-0.14-0.01-0.288-0.01-0.455c0-0.148,0.006-0.281,0.014-0.408c0.092-1.291,0.71-1.561,3.159-1.561
				c0.227,0,0.462,0.004,0.705,0.013c0.357,0.011,0.737,0.034,1.122,0.063c1.39,0.104,2.931,0.318,4.438,0.646l0.156-1.016
				l0.448-2.961c-2.008-0.562-4.9-0.844-6.948-0.844c-0.088,0-0.167,0.004-0.252,0.005C55.093,6,52.751,6.76,51.72,8.778
				c-0.416,0.816-0.628,1.828-0.628,3.091c0,3.937,0.522,5.502,6.227,6.706c3.351,0.718,4.092,1.117,4.253,2.074
				c0.02,0.354,0.026,0.741,0.028,1.162c-0.004,0.06-0.008,0.118-0.016,0.174c-0.152,1.172-0.905,1.572-3.222,1.572
				c-0.244,0-0.496-0.009-0.754-0.02c-0.499-0.021-1.013-0.064-1.534-0.124c-1.545-0.174-3.128-0.488-4.378-0.86l-0.229,1.074
				l-0.574,2.701c2.169,0.885,5.101,1.325,7.43,1.325c0.092,0,0.172-0.004,0.261-0.006c4.293-0.039,6.425-0.998,7.365-2.89
				c0.468-0.946,0.649-2.119,0.649-3.531C66.597,17.211,66.155,16.206,60.25,14.841z"/>
			<polygon fill="#FFFFFF" points="75.952,27.25 90.612,27.25 90.612,23.154 80.933,23.154 80.933,18.656 89.891,18.656 
				89.891,14.52 80.933,14.52 80.933,10.462 90.612,10.462 90.612,6.367 75.952,6.367 			"/>
			<path fill="#FFFFFF" d="M111.576,23.076c-1.005,0.2-2.13,0.32-3.333,0.32c-3.135,0-3.615-0.965-3.615-2.892v-7.552
				c0-2.049,0.964-2.69,3.533-2.69c2.451,0,4.659,0.2,7.03,0.602l0.44-4.177c-2.61-0.523-5.02-0.724-7.269-0.724
				c-6.388,0-8.716,2.089-8.716,6.468v8.756c0,4.177,2.128,6.467,8.435,6.467c2.691,0,5.663-0.362,8.153-1.085v-9.52h-4.659V23.076z
				"/>
			<polygon fill="#FFFFFF" points="143.264,6.367 137.76,20.142 132.258,6.367 127.036,6.367 125.873,27.25 130.691,27.25 
				131.134,14.679 135.029,24.641 140.493,24.641 144.389,14.679 144.83,27.25 149.65,27.25 148.486,6.367 			"/>
			<polygon fill="#FFFFFF" points="159.688,27.25 174.348,27.25 174.348,23.154 164.668,23.154 164.668,18.656 173.625,18.656 
				173.625,14.52 164.668,14.52 164.668,10.462 174.348,10.462 174.348,6.367 159.688,6.367 			"/>
			<polygon fill="#FFFFFF" points="198.283,21.066 190.049,6.367 183.984,6.367 183.984,27.25 188.725,27.25 188.725,12.59 
				196.957,27.25 203.023,27.25 203.023,6.367 198.283,6.367 			"/>
			<polygon fill="#FFFFFF" points="211.453,6.367 211.453,10.664 217.84,10.664 217.84,27.25 222.82,27.25 222.82,10.664 
				229.206,10.664 229.206,6.367 			"/>
		</g>
		<g>
			
				<rect x="8.873" y="8.524" transform="matrix(0.7071 0.7071 -0.7071 0.7071 16.4707 -11.1401)" fill="#FFFFFF" width="25.62" height="11.577"/>
			
				<rect x="2.344" y="34.394" transform="matrix(0.7071 0.7071 -0.7071 0.7071 32.8536 1.0542)" fill="#FFFFFF" width="25.62" height="11.58"/>
			
				<rect x="-1.273" y="21.513" transform="matrix(0.7071 0.7071 -0.7071 0.7071 24.6935 -5.012)" fill="#00869B" width="39.34" height="11.577"/>
		</g>
	</g>
	<g>
		<path fill="#FFFFFF" d="M184.381,46.729c-0.391-0.162-0.678-0.298-0.861-0.407l-0.829,1.853c0.099,0.055,0.236,0.124,0.415,0.21
			c0.179,0.087,0.398,0.171,0.657,0.252c0.261,0.081,0.561,0.148,0.901,0.204c0.342,0.054,0.723,0.081,1.145,0.081
			c0.682,0,1.268-0.081,1.754-0.244c0.488-0.163,0.889-0.374,1.202-0.634c0.315-0.26,0.544-0.557,0.692-0.893
			c0.146-0.335,0.217-0.676,0.217-1.023c0-0.335-0.037-0.628-0.112-0.877s-0.196-0.471-0.365-0.666
			c-0.168-0.195-0.392-0.379-0.675-0.552c-0.281-0.173-0.634-0.362-1.055-0.569c-0.305-0.15-0.539-0.281-0.707-0.39
			s-0.252-0.271-0.252-0.487c0-0.163,0.039-0.292,0.114-0.39s0.175-0.173,0.3-0.228c0.125-0.054,0.26-0.09,0.406-0.105
			c0.146-0.017,0.295-0.024,0.446-0.024c0.348,0,0.698,0.055,1.056,0.162c0.357,0.109,0.649,0.224,0.877,0.342l0.828-1.803
			c-0.279-0.151-0.648-0.293-1.104-0.423c-0.455-0.131-0.975-0.195-1.559-0.195c-1.234,0-2.174,0.255-2.818,0.764
			c-0.645,0.51-0.967,1.203-0.967,2.079c0,0.336,0.052,0.625,0.155,0.869c0.102,0.243,0.242,0.461,0.421,0.649
			c0.18,0.189,0.387,0.352,0.625,0.487c0.239,0.136,0.494,0.264,0.764,0.382c0.238,0.108,0.434,0.202,0.586,0.284
			c0.15,0.081,0.27,0.16,0.357,0.236c0.086,0.075,0.147,0.157,0.186,0.243c0.039,0.086,0.057,0.189,0.057,0.309
			c0,0.184-0.102,0.355-0.309,0.512c-0.205,0.156-0.585,0.234-1.136,0.234C185.241,46.971,184.77,46.891,184.381,46.729
			 M176.99,44.747c-0.13,0.553-0.205,1.078-0.227,1.575c-0.023,0.498,0.055,0.94,0.227,1.324c0.174,0.385,0.465,0.688,0.877,0.909
			c0.411,0.222,0.992,0.334,1.738,0.334c0.52,0,0.969-0.043,1.349-0.131c0.379-0.086,0.729-0.189,1.056-0.308l-0.18-1.853
			c-0.248,0.088-0.494,0.154-0.738,0.203s-0.495,0.073-0.756,0.073c-0.303,0-0.541-0.043-0.715-0.13s-0.295-0.209-0.365-0.365
			c-0.07-0.157-0.097-0.344-0.08-0.561c0.016-0.217,0.057-0.449,0.121-0.698l0.715-2.989h2.68l0.487-1.98h-2.696l0.617-2.518
			l-2.518,0.389L176.99,44.747z M169.153,46.679c0.136,0.445,0.356,0.831,0.659,1.161c0.301,0.331,0.687,0.594,1.152,0.789
			c0.466,0.194,1.033,0.292,1.705,0.292c0.52,0,0.961-0.047,1.324-0.138c0.362-0.093,0.695-0.197,0.998-0.318l-0.178-1.932
			c-0.229,0.097-0.486,0.178-0.78,0.243c-0.292,0.064-0.595,0.098-0.91,0.098c-0.638,0-1.077-0.171-1.315-0.512
			c-0.236-0.341-0.356-0.787-0.356-1.34c0-0.942,0.232-1.687,0.698-2.233c0.465-0.546,1.104-0.82,1.918-0.82
			c0.334,0,0.618,0.035,0.852,0.105c0.234,0.071,0.457,0.15,0.674,0.236l0.829-1.885c-0.315-0.151-0.664-0.273-1.048-0.365
			c-0.385-0.092-0.82-0.139-1.307-0.139c-0.781,0-1.486,0.143-2.121,0.423c-0.633,0.282-1.173,0.666-1.615,1.153
			c-0.446,0.486-0.787,1.056-1.024,1.705c-0.237,0.65-0.356,1.344-0.356,2.079C168.951,45.77,169.018,46.236,169.153,46.679
			 M165.946,42.619c0,0.152-0.04,0.304-0.114,0.455c-0.076,0.151-0.227,0.292-0.455,0.423c-0.227,0.129-0.547,0.241-0.957,0.333
			c-0.413,0.092-0.954,0.148-1.625,0.17c0.13-0.649,0.403-1.172,0.82-1.567c0.416-0.395,0.901-0.593,1.454-0.593
			C165.654,41.839,165.946,42.099,165.946,42.619 M160.537,46.729c0.131,0.433,0.338,0.812,0.625,1.136
			c0.287,0.326,0.661,0.583,1.121,0.771c0.459,0.19,1.025,0.285,1.697,0.285c0.553,0,1.064-0.05,1.535-0.146
			c0.472-0.098,0.857-0.206,1.162-0.324l-0.181-1.901c-0.313,0.119-0.647,0.209-1.007,0.268c-0.355,0.061-0.708,0.09-1.054,0.09
			c-0.553,0-0.956-0.094-1.21-0.283c-0.256-0.189-0.42-0.512-0.496-0.967c0.779,0,1.499-0.06,2.16-0.179
			c0.659-0.119,1.231-0.312,1.713-0.577c0.48-0.266,0.857-0.609,1.13-1.031c0.269-0.422,0.405-0.937,0.405-1.543
			c0-0.379-0.068-0.717-0.202-1.016c-0.138-0.297-0.326-0.55-0.569-0.755c-0.244-0.205-0.527-0.362-0.852-0.472
			c-0.324-0.107-0.678-0.162-1.057-0.162c-0.769,0-1.471,0.154-2.104,0.464c-0.634,0.308-1.174,0.714-1.616,1.218
			c-0.444,0.504-0.788,1.08-1.03,1.73c-0.245,0.648-0.367,1.32-0.367,2.014C160.342,45.834,160.406,46.295,160.537,46.729
			 M154.073,44.747c-0.13,0.553-0.205,1.078-0.228,1.575c-0.021,0.498,0.055,0.94,0.228,1.324c0.173,0.385,0.466,0.688,0.877,0.909
			c0.411,0.222,0.99,0.334,1.738,0.334c0.52,0,0.969-0.043,1.347-0.131c0.381-0.086,0.732-0.189,1.057-0.308l-0.179-1.853
			c-0.249,0.088-0.495,0.154-0.739,0.203c-0.242,0.049-0.496,0.073-0.754,0.073c-0.304,0-0.541-0.043-0.715-0.13
			s-0.295-0.209-0.366-0.365c-0.07-0.157-0.097-0.344-0.082-0.561c0.017-0.217,0.058-0.449,0.123-0.698l0.716-2.989h2.678
			l0.486-1.98h-2.694l0.616-2.518l-2.517,0.389L154.073,44.747z M150.03,42.417c0.172,0.297,0.259,0.723,0.259,1.275
			c0,0.336-0.045,0.689-0.137,1.062c-0.092,0.374-0.232,0.719-0.416,1.031c-0.184,0.314-0.411,0.574-0.682,0.781
			c-0.271,0.205-0.585,0.308-0.942,0.308c-0.454,0-0.769-0.148-0.941-0.446c-0.174-0.298-0.259-0.724-0.259-1.275
			c0-0.335,0.044-0.689,0.137-1.063c0.092-0.374,0.23-0.718,0.414-1.032c0.184-0.313,0.411-0.573,0.682-0.779
			c0.271-0.205,0.586-0.309,0.943-0.309C149.541,41.969,149.856,42.119,150.03,42.417 M149.973,48.426
			c0.6-0.331,1.102-0.756,1.502-1.275c0.4-0.521,0.703-1.105,0.91-1.754c0.205-0.65,0.309-1.3,0.309-1.949
			c0-0.52-0.07-0.994-0.211-1.421c-0.143-0.428-0.349-0.799-0.625-1.113c-0.276-0.313-0.629-0.558-1.057-0.731
			c-0.428-0.172-0.924-0.26-1.487-0.26c-0.767,0-1.45,0.166-2.046,0.496c-0.595,0.33-1.099,0.754-1.51,1.275
			c-0.412,0.52-0.723,1.104-0.936,1.754c-0.209,0.649-0.315,1.299-0.315,1.949c0,0.52,0.071,0.993,0.212,1.42
			c0.141,0.43,0.349,0.8,0.625,1.113c0.276,0.314,0.625,0.559,1.049,0.73c0.421,0.173,0.92,0.261,1.493,0.261
			C148.676,48.921,149.371,48.755,149.973,48.426 M144.669,40.28c-0.249-0.107-0.538-0.186-0.868-0.234
			c-0.33-0.05-0.632-0.074-0.902-0.074c-0.725,0-1.377,0.068-1.957,0.203c-0.58,0.136-1.102,0.279-1.568,0.431l-1.947,8.089h2.42
			l1.576-6.562c0.117-0.032,0.27-0.062,0.453-0.089c0.184-0.026,0.354-0.041,0.504-0.041c0.411,0,0.723,0.025,0.935,0.073
			c0.212,0.05,0.425,0.101,0.642,0.154L144.669,40.28z M134.379,39.745c0.354,0.206,0.529,0.552,0.529,1.039
			c0,0.369-0.072,0.68-0.219,0.934c-0.147,0.256-0.353,0.463-0.618,0.626s-0.583,0.278-0.957,0.349
			c-0.374,0.071-0.789,0.106-1.243,0.106h-0.633l0.779-3.313c0.129-0.011,0.26-0.021,0.391-0.033c0.129-0.01,0.284-0.016,0.47-0.016
			C133.527,39.436,134.029,39.539,134.379,39.745 M131.603,37.374c-0.524,0.043-1.079,0.119-1.664,0.227l-2.647,11.094h2.516
			l0.91-3.768h0.635c0.877,0,1.688-0.076,2.436-0.229c0.746-0.15,1.397-0.4,1.949-0.746c0.552-0.348,0.984-0.802,1.299-1.365
			c0.313-0.562,0.471-1.25,0.471-2.062c0-0.498-0.104-0.947-0.309-1.348c-0.204-0.4-0.498-0.74-0.877-1.016
			c-0.378-0.276-0.84-0.487-1.388-0.633c-0.546-0.146-1.161-0.219-1.843-0.219C132.624,37.309,132.127,37.331,131.603,37.374
			 M117.586,39.265c0.276-0.243,0.578-0.365,0.902-0.365s0.562,0.079,0.715,0.235c0.15,0.158,0.227,0.339,0.227,0.544
			c0,0.379-0.145,0.707-0.43,0.983c-0.289,0.275-0.69,0.533-1.21,0.771l-0.195,0.081c-0.282-0.466-0.423-0.851-0.423-1.153
			C117.172,39.875,117.309,39.509,117.586,39.265 M115.442,46.574c-0.221-0.254-0.333-0.555-0.333-0.9
			c0-0.325,0.103-0.656,0.308-0.991c0.207-0.336,0.536-0.605,0.992-0.812l0.243-0.113l1.899,2.501
			c-0.411,0.281-0.802,0.469-1.169,0.56c-0.369,0.093-0.693,0.14-0.974,0.14C115.986,46.957,115.664,46.829,115.442,46.574
			 M112.909,47.141c0.134,0.321,0.343,0.608,0.625,0.861c0.282,0.256,0.636,0.458,1.064,0.61c0.428,0.15,0.928,0.228,1.501,0.228
			c1.322,0,2.496-0.352,3.526-1.057c0.086,0.162,0.17,0.32,0.25,0.471c0.082,0.153,0.156,0.299,0.22,0.439h2.452
			c-0.184-0.391-0.387-0.785-0.607-1.186c-0.223-0.4-0.474-0.801-0.756-1.203c0.628-0.811,1.176-1.808,1.641-2.987l-2.128-0.276
			c-0.228,0.65-0.478,1.196-0.747,1.641l-1.365-1.819l0.603-0.276c0.389-0.173,0.729-0.385,1.022-0.633
			c0.293-0.25,0.533-0.515,0.724-0.796c0.188-0.281,0.333-0.569,0.43-0.861c0.099-0.293,0.146-0.574,0.146-0.845
			c0-0.302-0.059-0.592-0.178-0.869c-0.12-0.275-0.296-0.516-0.529-0.723c-0.232-0.205-0.527-0.37-0.885-0.495
			c-0.357-0.124-0.769-0.187-1.234-0.187c-0.562,0-1.069,0.081-1.518,0.243c-0.449,0.163-0.835,0.382-1.153,0.657
			c-0.32,0.277-0.564,0.607-0.732,0.991c-0.168,0.385-0.252,0.794-0.252,1.227c0,0.336,0.052,0.681,0.156,1.031
			c0.102,0.353,0.26,0.706,0.479,1.063l-0.277,0.13c-0.941,0.423-1.623,0.929-2.046,1.519c-0.422,0.591-0.633,1.291-0.633,2.104
			C112.706,46.491,112.773,46.823,112.909,47.141 M102.165,46.729c-0.39-0.162-0.677-0.298-0.86-0.407l-0.829,1.853
			c0.098,0.055,0.235,0.124,0.414,0.21c0.179,0.087,0.398,0.171,0.658,0.252c0.261,0.081,0.561,0.148,0.902,0.204
			c0.341,0.054,0.723,0.081,1.144,0.081c0.684,0,1.268-0.081,1.754-0.244c0.489-0.163,0.889-0.374,1.203-0.634
			c0.313-0.26,0.543-0.557,0.689-0.893c0.147-0.335,0.22-0.676,0.22-1.023c0-0.335-0.038-0.628-0.113-0.877
			c-0.075-0.249-0.199-0.471-0.366-0.666s-0.392-0.379-0.674-0.552s-0.634-0.362-1.056-0.569c-0.303-0.15-0.54-0.281-0.707-0.39
			c-0.169-0.108-0.252-0.271-0.252-0.487c0-0.163,0.039-0.292,0.114-0.39c0.076-0.098,0.176-0.173,0.3-0.228
			c0.125-0.054,0.261-0.09,0.407-0.105c0.146-0.017,0.295-0.024,0.446-0.024c0.346,0,0.698,0.055,1.056,0.162
			c0.357,0.109,0.649,0.224,0.877,0.342l0.828-1.803c-0.282-0.151-0.649-0.293-1.103-0.423c-0.456-0.131-0.976-0.195-1.559-0.195
			c-1.235,0-2.174,0.255-2.818,0.764c-0.645,0.51-0.967,1.203-0.967,2.079c0,0.336,0.052,0.625,0.156,0.869
			c0.102,0.243,0.243,0.461,0.421,0.649c0.178,0.189,0.387,0.352,0.625,0.487c0.239,0.136,0.494,0.264,0.764,0.382
			c0.238,0.108,0.433,0.202,0.585,0.284c0.151,0.081,0.271,0.16,0.358,0.236c0.085,0.075,0.147,0.157,0.187,0.243
			c0.038,0.086,0.056,0.189,0.056,0.309c0,0.184-0.103,0.355-0.308,0.512c-0.207,0.156-0.585,0.234-1.136,0.234
			C103.026,46.971,102.554,46.891,102.165,46.729 M94.774,44.747c-0.129,0.553-0.206,1.078-0.226,1.575
			c-0.023,0.498,0.052,0.94,0.226,1.324c0.174,0.385,0.466,0.688,0.877,0.909c0.412,0.222,0.991,0.334,1.738,0.334
			c0.52,0,0.969-0.043,1.348-0.131c0.379-0.086,0.731-0.189,1.056-0.308l-0.179-1.853c-0.249,0.088-0.495,0.154-0.738,0.203
			c-0.244,0.049-0.495,0.073-0.756,0.073c-0.303,0-0.543-0.043-0.715-0.13c-0.174-0.087-0.295-0.209-0.365-0.365
			c-0.071-0.157-0.097-0.344-0.082-0.561c0.018-0.217,0.058-0.449,0.123-0.698l0.715-2.989h2.679l0.488-1.98h-2.697l0.616-2.518
			l-2.517,0.389L94.774,44.747z M86.938,46.679c0.136,0.445,0.354,0.831,0.657,1.161c0.304,0.331,0.689,0.594,1.154,0.789
			c0.465,0.194,1.033,0.292,1.705,0.292c0.52,0,0.961-0.047,1.323-0.138c0.363-0.093,0.697-0.197,1-0.318l-0.179-1.932
			c-0.228,0.097-0.488,0.178-0.78,0.243c-0.292,0.064-0.595,0.098-0.91,0.098c-0.637,0-1.077-0.171-1.315-0.512
			c-0.239-0.341-0.357-0.787-0.357-1.34c0-0.942,0.233-1.687,0.699-2.233c0.465-0.546,1.105-0.82,1.916-0.82
			c0.336,0,0.62,0.035,0.853,0.105c0.233,0.071,0.458,0.15,0.674,0.236l0.828-1.885c-0.313-0.151-0.662-0.273-1.047-0.365
			c-0.384-0.092-0.82-0.139-1.307-0.139c-0.78,0-1.487,0.143-2.12,0.423c-0.633,0.282-1.172,0.666-1.616,1.153
			c-0.443,0.486-0.784,1.056-1.023,1.705c-0.238,0.65-0.357,1.344-0.357,2.079C86.735,45.77,86.803,46.236,86.938,46.679
			 M83.729,42.619c0,0.152-0.038,0.304-0.113,0.455c-0.075,0.151-0.228,0.292-0.454,0.423c-0.228,0.129-0.548,0.241-0.959,0.333
			c-0.412,0.092-0.953,0.148-1.623,0.17c0.129-0.649,0.403-1.172,0.819-1.567c0.417-0.395,0.902-0.593,1.455-0.593
			C83.438,41.839,83.729,42.099,83.729,42.619 M78.323,46.729c0.129,0.433,0.337,0.812,0.625,1.136
			c0.287,0.326,0.66,0.583,1.121,0.771c0.459,0.19,1.024,0.285,1.697,0.285c0.552,0,1.064-0.05,1.534-0.146
			c0.47-0.098,0.857-0.206,1.161-0.324l-0.179-1.901c-0.312,0.119-0.649,0.209-1.006,0.268c-0.357,0.061-0.71,0.09-1.056,0.09
			c-0.552,0-0.956-0.094-1.209-0.283c-0.254-0.189-0.418-0.512-0.496-0.967c0.779,0,1.499-0.06,2.161-0.179
			c0.661-0.119,1.231-0.312,1.713-0.577c0.482-0.266,0.857-0.609,1.128-1.031c0.272-0.422,0.407-0.937,0.407-1.543
			c0-0.379-0.069-0.717-0.204-1.016c-0.134-0.297-0.324-0.55-0.569-0.755c-0.243-0.205-0.528-0.362-0.853-0.472
			c-0.325-0.107-0.677-0.162-1.056-0.162c-0.767,0-1.469,0.154-2.103,0.464c-0.633,0.308-1.172,0.714-1.615,1.218
			c-0.445,0.504-0.789,1.08-1.032,1.73c-0.244,0.648-0.365,1.32-0.365,2.014C78.127,45.834,78.191,46.295,78.323,46.729
			 M71.858,44.747c-0.129,0.553-0.207,1.078-0.228,1.575c-0.021,0.498,0.054,0.94,0.228,1.324c0.172,0.385,0.465,0.688,0.877,0.909
			c0.412,0.222,0.991,0.334,1.738,0.334c0.52,0,0.969-0.043,1.348-0.131c0.379-0.086,0.731-0.189,1.056-0.308l-0.179-1.853
			c-0.249,0.088-0.495,0.154-0.739,0.203c-0.243,0.049-0.495,0.073-0.754,0.073c-0.303,0-0.542-0.043-0.714-0.13
			c-0.174-0.087-0.295-0.209-0.366-0.365c-0.07-0.157-0.098-0.344-0.082-0.561c0.016-0.217,0.057-0.449,0.123-0.698l0.715-2.989
			h2.679l0.488-1.98H75.35l0.616-2.518l-2.516,0.389L71.858,44.747z M68.61,42.619c0,0.152-0.039,0.304-0.115,0.455
			c-0.075,0.151-0.226,0.292-0.454,0.423c-0.229,0.129-0.548,0.241-0.959,0.333c-0.411,0.092-0.953,0.148-1.623,0.17
			c0.129-0.649,0.403-1.172,0.82-1.567c0.417-0.395,0.902-0.593,1.454-0.593C68.316,41.839,68.61,42.099,68.61,42.619
			 M63.201,46.729c0.13,0.433,0.338,0.812,0.625,1.136c0.287,0.326,0.661,0.583,1.122,0.771c0.458,0.19,1.024,0.285,1.696,0.285
			c0.553,0,1.064-0.05,1.535-0.146c0.47-0.098,0.858-0.206,1.161-0.324l-0.178-1.901c-0.314,0.119-0.65,0.209-1.008,0.268
			c-0.357,0.061-0.708,0.09-1.056,0.09c-0.551,0-0.956-0.094-1.21-0.283s-0.42-0.512-0.495-0.967c0.78,0,1.5-0.06,2.161-0.179
			c0.659-0.119,1.231-0.312,1.713-0.577s0.857-0.609,1.127-1.031c0.271-0.422,0.407-0.937,0.407-1.543
			c0-0.379-0.067-0.717-0.203-1.016c-0.134-0.297-0.324-0.55-0.567-0.755c-0.244-0.205-0.527-0.362-0.854-0.472
			c-0.325-0.107-0.678-0.162-1.055-0.162c-0.771,0-1.47,0.154-2.104,0.464c-0.635,0.308-1.172,0.714-1.617,1.218
			s-0.788,1.08-1.031,1.73c-0.244,0.648-0.365,1.32-0.365,2.014C63.006,45.834,63.072,46.295,63.201,46.729 M61.626,39.987
			c-0.228-0.551-0.561-1.027-0.999-1.429c-0.439-0.399-0.976-0.708-1.608-0.925c-0.635-0.217-1.351-0.324-2.152-0.324
			c-0.455,0-0.966,0.023-1.535,0.072c-0.568,0.048-1.162,0.133-1.779,0.252l-2.615,10.865c0.552,0.119,1.126,0.206,1.722,0.26
			c0.595,0.055,1.121,0.082,1.576,0.082c1.202,0,2.279-0.163,3.231-0.488c0.953-0.324,1.764-0.787,2.43-1.389
			c0.666-0.601,1.177-1.334,1.535-2.2c0.357-0.866,0.536-1.846,0.536-2.94C61.967,41.153,61.852,40.541,61.626,39.987
			 M55.615,39.485c0.336-0.033,0.666-0.049,0.992-0.049c0.497,0,0.921,0.06,1.274,0.179s0.64,0.289,0.861,0.511
			c0.221,0.223,0.382,0.487,0.48,0.797c0.097,0.308,0.146,0.652,0.146,1.031c0,0.736-0.108,1.4-0.325,1.989
			c-0.218,0.591-0.523,1.088-0.918,1.494s-0.877,0.718-1.446,0.934c-0.569,0.217-1.205,0.325-1.908,0.325
			c-0.217,0-0.387-0.002-0.512-0.008s-0.246-0.014-0.366-0.024L55.615,39.485z"/>
	</g>
</g>
</svg>
